<?xml version="1.0" encoding="UTF-8"?>
<svg xmlns="http://www.w3.org/2000/svg" viewBox="0 0 512 512">
  <g fill="none" stroke="#c19a5b" stroke-width="7" stroke-linecap="round" stroke-linejoin="round">
  
    <polygon points="256,32 480,256 256,480 32,256"/>
    <polygon points="256,84 428,256 256,428 84,256"/>

    
    <path d="M256 86 C290 118 315 145 256 200 C197 145 222 118 256 86 Z"/>
    <path d="M426 256 C394 290 367 315 312 256 C367 197 394 222 426 256 Z"/>
    <path d="M256 426 C222 394 197 367 256 312 C315 367 290 394 256 426 Z"/>
    <path d="M86 256 C118 222 145 197 200 256 C145 315 118 290 86 256 Z"/>

 
    <path d="M180 180 Q256 120 332 180"/>
    <path d="M332 180 Q392 256 332 332"/>
    <path d="M332 332 Q256 392 180 332"/>
    <path d="M180 332 Q120 256 180 180"/>

    
    <polygon points="256,128 384,256 256,384 128,256"/>
    <polygon points="256,164 348,256 256,348 164,256"/>

    
    <circle cx="256" cy="256" r="10"/>
    
    <path d="M256 188 C276 212 292 226 292 256 C292 286 276 300 256 324 C236 300 220 286 220 256 C220 226 236 212 256 188 Z"/>
    <path d="M188 256 C212 236 226 220 256 220 C286 220 300 236 324 256 C300 276 286 292 256 292 C226 292 212 276 188 256 Z"/>

 
    <path d="M256 112 C270 126 286 136 302 148"/>
    <path d="M400 256 C386 270 376 286 364 302"/>
    <path d="M256 400 C242 386 226 376 210 364"/>
    <path d="M112 256 C126 242 136 226 148 210"/>

   
    <path d="M220 148 Q256 128 292 148"/>
    <path d="M364 220 Q384 256 364 292"/>
    <path d="M220 364 Q256 384 292 364"/>
    <path d="M148 220 Q128 256 148 292"/>

   
    <path d="M256 228 L264 248 L284 256 L264 264 L256 284 L248 264 L228 256 L248 248 Z"/>
  </g>
</svg>