<svg xmlns="http://www.w3.org/2000/svg" viewBox="0 0 200 200" width="100%" height="100%">
  <rect width="100%" height="100%" fill="#FDF7EF"/>
  <g stroke="#C19A5B" stroke-width="2.5" fill="none" stroke-linecap="round" stroke-linejoin="round">
    <path d="M 100 15 C 115 25 122 35 118 48 C 132 50 135 65 122 75 C 112 82 105 75 100 68 C 95 75 88 82 78 75 C 65 65 68 50 82 48 C 78 35 85 25 100 15 Z"/>
    <path d="M 100 30 C 115 45 118 55 110 64 C 105 68 102 65 100 62 C 98 65 95 68 90 64 C 82 55 85 45 100 30 Z"/>
    <line x1="100" y1="44" x2="100" y2="56"/>
    <path d="M 116 75 C 150 70 170 95 150 125 C 135 145 112 128 120 110 C 126 95 142 105 135 116"/>
    <path d="M 132 88 C 150 90 155 105 142 115 C 135 120 128 112 132 105"/>
    <circle cx="140" cy="102" r="1.5" fill="#C19A5B" stroke="none"/>
    <path d="M 84 75 C 50 70 30 95 50 125 C 65 145 88 128 80 110 C 74 95 58 105 65 116"/>
    <path d="M 68 88 C 50 90 45 105 58 115 C 65 120 72 112 68 105"/>
    <circle cx="60" cy="102" r="1.5" fill="#C19A5B" stroke="none"/>
    <path d="M 100 118 C 125 118 125 142 112 142 C 102 142 100 132 108 130"/>
    <path d="M 100 118 C 75 118 75 142 88 142 C 98 142 100 132 92 130"/>
    <line x1="100" y1="135" x2="100" y2="147.5"/>
    <rect x="96" y="159" width="8" height="8" transform="rotate(45 100 163)"/>
    <circle cx="100" cy="151" r="3.5"/>
    <circle cx="100" cy="175" r="3.5"/>
    <circle cx="88" cy="163" r="3.5"/>
    <circle cx="112" cy="163" r="3.5"/>
  </g>
  <path d="M 100 85 C 108 96 108 106 100 111 C 92 106 92 96 100 85 Z" fill="#9B263B" stroke="#681524" stroke-width="0.5"/>
  <path d="M 97.5 93 C 100 93 100 97 97.5 97 C 96 97 96 93 97.5 93 Z" fill="#FFFFFF" opacity="0.5"/>
</svg>
